# xmcd
# Copyright (C) 1995-1998 Ti Kan
#
# Track frame offsets:
#       150
#       68687
#       145916
#       230008
#
# Disc length: 4118 seconds
#
# Revision: 0
# Processed by: cddbd v1.5.2PL0 Copyright (c) Steve Scherf et al.
# Submitted via: CD-Import v1.0
#
DISCID=33101404
DTITLE=Herr Der Ringe - 
DYEAR=1900
DGENRE=
TTITLE0=Hdr 9.1
TTITLE1=Hdr 9.2
TTITLE2=Hdr 9.3
TTITLE3=Hdr 9.4
EXTD=
EXTT0=
EXTT1=
EXTT2=
EXTT3=
PLAYORDER=
